<?xml version="1.0" encoding="iso-8859-1"?>
<!-- Generator: Adobe Illustrator 19.0.0, SVG Export Plug-In . SVG Version: 6.00 Build 0)  -->
<svg version="1.1" id="Capa_1" xmlns="http://www.w3.org/2000/svg" xmlns:xlink="http://www.w3.org/1999/xlink" x="0px" y="0px"
	 viewBox="0 0 504.123 504.123" style="enable-background:new 0 0 504.123 504.123;" xml:space="preserve">
<circle style="fill:#FBBD5E;" cx="252.062" cy="251.274" r="251.274"/>
<polygon style="fill:#FFFFFF;" points="252.062,199.286 299.323,294.597 404.874,310.351 328.468,384.394 346.585,489.945 
	252.062,440.32 157.538,489.945 175.655,384.394 99.249,310.351 204.8,294.597 "/>
<path style="fill:#183651;" d="M356.825,504.123l-104.763-55.138l-104.763,55.138l19.692-116.578l-84.283-82.708l116.578-17.329
	l52.775-106.338l52.775,106.338l116.578,17.329l-84.283,82.708L356.825,504.123z M115.791,315.865l67.742,66.166l-15.754,93.735
	l84.283-44.111l84.283,44.111l-15.754-93.735l67.742-66.166l-93.735-13.391l-42.535-85.858l-41.748,85.071L115.791,315.865z"/>
<polygon style="fill:#4FBF9F;" points="209.526,373.366 166.991,332.406 226.068,323.742 252.062,270.178 278.055,323.742 
	337.132,332.406 294.597,373.366 304.837,432.443 252.062,404.874 199.286,432.443 "/>
<rect x="180.382" y="122.88" style="fill:#E0E4E8;" width="143.36" height="97.674"/>
<path style="fill:#183651;" d="M331.618,228.431H172.505V115.003h159.114V228.431z M188.258,212.677h127.606v-81.92H188.258V212.677
	z"/>
<polygon style="fill:#F06151;" points="113.428,7.877 113.428,87.434 252.062,178.018 390.695,87.434 390.695,7.877 "/>
<path style="fill:#183651;" d="M252.062,187.471L105.551,92.16V0h292.234v92.16L252.062,187.471z M121.305,83.495l130.757,85.071
	l130.757-85.071V15.754H121.305V83.495z"/>
<polygon style="fill:#FFFFFF;" points="144.935,72.468 144.935,39.385 359.188,39.385 359.188,72.468 252.062,138.634 "/>
<g>
	<rect x="200.074" y="63.015" style="fill:#183651;" width="15.754" height="15.754"/>
	<rect x="244.185" y="63.015" style="fill:#183651;" width="15.754" height="15.754"/>
	<rect x="288.295" y="63.015" style="fill:#183651;" width="15.754" height="15.754"/>
</g>
<g>
</g>
<g>
</g>
<g>
</g>
<g>
</g>
<g>
</g>
<g>
</g>
<g>
</g>
<g>
</g>
<g>
</g>
<g>
</g>
<g>
</g>
<g>
</g>
<g>
</g>
<g>
</g>
<g>
</g>
</svg>
