<svg height="512pt" viewBox="0 0 512 512" width="512pt" xmlns="http://www.w3.org/2000/svg"><path d="m10 133v263c0 11.050781 8.949219 20 20 20h254.628906l151.371094-124.839844v-158.160156zm0 0" fill="#ede9e8"/><path d="m502 392c0 60.75-49.25 110-110 110-52.511719 0-96.421875-36.789062-107.371094-86-15.308594-68.8125 37.046875-134 107.371094-134 60.363281 0 110 48.871094 110 110zm0 0" fill="#90e36a"/><path d="m416 50h-386c-11.050781 0-20 8.949219-20 20v63h426v-63c0-11.050781-8.949219-20-20-20zm0 0" fill="#ed5575"/><g fill="#656d88"><path d="m376 70c0 11.050781-8.949219 20-20 20s-20-8.949219-20-20c0-13.988281 0-26.011719 0-40 0-11.050781 8.949219-20 20-20 11.039062 0 20 8.960938 20 20zm0 0"/><path d="m233 70c0 11.050781-8.949219 20-20 20s-20-8.949219-20-20c0-13.988281 0-26.011719 0-40 0-11.050781 8.949219-20 20-20 11.039062 0 20 8.960938 20 20zm0 0"/><path d="m90 70c0 11.050781-8.949219 20-20 20s-20-8.949219-20-20c0-13.988281 0-26.011719 0-40 0-11.050781 8.949219-20 20-20 11.039062 0 20 8.960938 20 20zm0 0"/></g><path d="m203 376c0 5.523438-4.476562 10-10 10s-10-4.476562-10-10 4.476562-10 10-10 10 4.476562 10 10zm0 0"/><path d="m452 382h-50v-50c0-5.523438-4.476562-10-10-10s-10 4.476562-10 10v60c0 5.523438 4.476562 10 10 10h60c5.523438 0 10-4.476562 10-10s-4.476562-10-10-10zm0 0"/><path d="m70 206h63c5.523438 0 10-4.476562 10-10s-4.476562-10-10-10h-63c-5.523438 0-10 4.476562-10 10s4.476562 10 10 10zm0 0"/><path d="m256 186h-63c-5.523438 0-10 4.476562-10 10s4.476562 10 10 10h63c5.523438 0 10-4.476562 10-10s-4.476562-10-10-10zm0 0"/><path d="m70 266h63c5.523438 0 10-4.476562 10-10s-4.476562-10-10-10h-63c-5.523438 0-10 4.476562-10 10s4.476562 10 10 10zm0 0"/><path d="m153 366h-83c-5.523438 0-10 4.476562-10 10s4.476562 10 10 10h83c5.523438 0 10-4.476562 10-10s-4.476562-10-10-10zm0 0"/><path d="m256 246h-63c-5.523438 0-10 4.476562-10 10s4.476562 10 10 10h63c5.523438 0 10-4.476562 10-10s-4.476562-10-10-10zm0 0"/><path d="m70 326h63c5.523438 0 10-4.476562 10-10s-4.476562-10-10-10h-63c-5.523438 0-10 4.476562-10 10s4.476562 10 10 10zm0 0"/><path d="m256 306h-63c-5.523438 0-10 4.476562-10 10s4.476562 10 10 10h63c5.523438 0 10-4.476562 10-10s-4.476562-10-10-10zm0 0"/><path d="m316 206h60c5.523438 0 10-4.476562 10-10s-4.476562-10-10-10h-60c-5.523438 0-10 4.476562-10 10s4.476562 10 10 10zm0 0"/><path d="m446 284.835938v-214.835938c0-16.542969-13.457031-30-30-30h-30v-10c0-16.574219-13.425781-30-30-30-16.542969 0-30 13.457031-30 30v10h-83v-10c0-16.574219-13.425781-30-30-30-16.542969 0-30 13.457031-30 30v10h-83v-10c0-16.574219-13.425781-30-30-30-16.542969 0-30 13.457031-30 30v10h-10c-16.542969 0-30 13.457031-30 30v326c0 16.542969 13.457031 30 30 30h246.921875c15.089844 50.988281 61.90625 86 115.078125 86 66.167969 0 120-53.832031 120-120 0-45.5-25.703125-86.851562-66-107.164062zm-100-254.835938c0-5.515625 4.484375-10 10-10 5.519531 0 10 4.476562 10 10v40c0 5.515625-4.484375 10-10 10s-10-4.484375-10-10zm-143 0c0-5.515625 4.484375-10 10-10 5.519531 0 10 4.476562 10 10v40c0 5.515625-4.484375 10-10 10s-10-4.484375-10-10zm-143 0c0-5.515625 4.484375-10 10-10 5.519531 0 10 4.476562 10 10v40c0 5.515625-4.484375 10-10 10s-10-4.484375-10-10zm-30 30h10v10c0 16.542969 13.457031 30 30 30s30-13.457031 30-30v-10h83v10c0 16.542969 13.457031 30 30 30s30-13.457031 30-30v-10h83v10c0 16.542969 13.457031 30 30 30s30-13.457031 30-30v-10h30c5.515625 0 10 4.484375 10 10v53h-406v-53c0-5.515625 4.484375-10 10-10zm-10 336v-253h406v133.890625c-10.972656-3.246094-22.355469-4.890625-34-4.890625-66.167969 0-120 53.832031-120 120 0 4.679688.28125 9.359375.820312 14h-242.820312c-5.515625 0-10-4.484375-10-10zm372 96c-53.601562 0-100-43.675781-100-100 0-55.140625 44.859375-100 100-100 55.339844 0 100 44.898438 100 100 0 55.140625-44.859375 100-100 100zm0 0"/></svg>